<mxfile host="65bd71144e" scale="3" border="20">
    <diagram id="CX3G9Xh7dB3GCvSDx5av" name="第 1 页">
        <mxGraphModel dx="1064" dy="628" grid="0" gridSize="10" guides="1" tooltips="1" connect="1" arrows="1" fold="1" page="1" pageScale="1" pageWidth="1169" pageHeight="827" background="#ffffff" math="0" shadow="0">
            <root>
                <mxCell id="0"/>
                <mxCell id="1" parent="0"/>
                <mxCell id="180" value="" style="group" parent="1" vertex="1" connectable="0">
                    <mxGeometry x="521" y="115.5" width="179" height="213" as="geometry"/>
                </mxCell>
                <mxCell id="177" value="" style="shape=cylinder3;whiteSpace=wrap;html=1;boundedLbl=1;backgroundOutline=1;size=15;" parent="180" vertex="1">
                    <mxGeometry width="179" height="213" as="geometry"/>
                </mxCell>
                <mxCell id="178" value="教师ID =&amp;gt; 学生ID集合" style="ellipse;whiteSpace=wrap;html=1;aspect=fixed;" parent="180" vertex="1">
                    <mxGeometry x="33" y="69" width="119" height="119" as="geometry"/>
                </mxCell>
                <mxCell id="179" value="&lt;font style=&quot;font-size: 16px;&quot; color=&quot;#000000&quot;&gt;Redis缓存&lt;/font&gt;" style="text;html=1;align=center;verticalAlign=middle;resizable=0;points=[];autosize=1;strokeColor=none;fillColor=none;" parent="180" vertex="1">
                    <mxGeometry x="44" y="30" width="91" height="31" as="geometry"/>
                </mxCell>
                <mxCell id="220" value="" style="group" parent="1" vertex="1" connectable="0">
                    <mxGeometry x="129" y="88" width="245" height="321" as="geometry"/>
                </mxCell>
                <mxCell id="218" value="" style="rounded=0;whiteSpace=wrap;html=1;strokeColor=#000000;fontSize=16;fontColor=#000000;" parent="220" vertex="1">
                    <mxGeometry width="245" height="321" as="geometry"/>
                </mxCell>
                <mxCell id="214" value="" style="group" parent="220" vertex="1" connectable="0">
                    <mxGeometry x="24" y="17" width="201" height="257" as="geometry"/>
                </mxCell>
                <mxCell id="193" value="WebSocketVideoStudent" style="swimlane;fontStyle=1;align=center;verticalAlign=top;childLayout=stackLayout;horizontal=1;startSize=26;horizontalStack=0;resizeParent=1;resizeParentMax=0;resizeLast=0;collapsible=1;marginBottom=0;fontSize=16;fontColor=#000000;" parent="214" vertex="1">
                    <mxGeometry width="201" height="86" as="geometry"/>
                </mxCell>
                <mxCell id="194" value="studentIdToSession" style="text;strokeColor=none;fillColor=none;align=left;verticalAlign=top;spacingLeft=4;spacingRight=4;overflow=hidden;rotatable=0;points=[[0,0.5],[1,0.5]];portConstraint=eastwest;fontSize=16;fontColor=#000000;" parent="193" vertex="1">
                    <mxGeometry y="26" width="201" height="26" as="geometry"/>
                </mxCell>
                <mxCell id="195" value="" style="line;strokeWidth=1;fillColor=none;align=left;verticalAlign=middle;spacingTop=-1;spacingLeft=3;spacingRight=3;rotatable=0;labelPosition=right;points=[];portConstraint=eastwest;strokeColor=inherit;fontSize=16;fontColor=#000000;" parent="193" vertex="1">
                    <mxGeometry y="52" width="201" height="8" as="geometry"/>
                </mxCell>
                <mxCell id="196" value="redisServiceImp" style="text;strokeColor=none;fillColor=none;align=left;verticalAlign=top;spacingLeft=4;spacingRight=4;overflow=hidden;rotatable=0;points=[[0,0.5],[1,0.5]];portConstraint=eastwest;fontSize=16;fontColor=#000000;" parent="193" vertex="1">
                    <mxGeometry y="60" width="201" height="26" as="geometry"/>
                </mxCell>
                <mxCell id="211" style="edgeStyle=none;html=1;exitX=0.5;exitY=0;exitDx=0;exitDy=0;exitPerimeter=0;entryX=0.506;entryY=1.27;entryDx=0;entryDy=0;entryPerimeter=0;strokeColor=#000000;fontSize=16;fontColor=#000000;" parent="214" source="197" target="196" edge="1">
                    <mxGeometry relative="1" as="geometry"/>
                </mxCell>
                <mxCell id="197" value="学生" style="shape=umlActor;verticalLabelPosition=bottom;verticalAlign=top;html=1;fontSize=16;fontColor=#000000;strokeColor=#000000;" parent="214" vertex="1">
                    <mxGeometry x="85.5" y="197" width="30" height="60" as="geometry"/>
                </mxCell>
                <mxCell id="222" value="" style="group" parent="1" vertex="1" connectable="0">
                    <mxGeometry x="848" y="84" width="268" height="329" as="geometry"/>
                </mxCell>
                <mxCell id="221" value="" style="rounded=0;whiteSpace=wrap;html=1;strokeColor=#000000;fontSize=16;fontColor=#000000;" parent="222" vertex="1">
                    <mxGeometry width="242" height="329" as="geometry"/>
                </mxCell>
                <mxCell id="215" value="" style="group" parent="222" vertex="1" connectable="0">
                    <mxGeometry x="20" y="18" width="248" height="278" as="geometry"/>
                </mxCell>
                <mxCell id="184" value="WebSocketVideoStudent" style="swimlane;fontStyle=1;align=center;verticalAlign=top;childLayout=stackLayout;horizontal=1;startSize=26;horizontalStack=0;resizeParent=1;resizeParentMax=0;resizeLast=0;collapsible=1;marginBottom=0;fontSize=16;fontColor=#000000;" parent="215" vertex="1">
                    <mxGeometry width="201" height="86" as="geometry"/>
                </mxCell>
                <mxCell id="185" value="teacherSessionsMaps" style="text;strokeColor=none;fillColor=none;align=left;verticalAlign=top;spacingLeft=4;spacingRight=4;overflow=hidden;rotatable=0;points=[[0,0.5],[1,0.5]];portConstraint=eastwest;fontSize=16;fontColor=#000000;" parent="184" vertex="1">
                    <mxGeometry y="26" width="201" height="26" as="geometry"/>
                </mxCell>
                <mxCell id="186" value="" style="line;strokeWidth=1;fillColor=none;align=left;verticalAlign=middle;spacingTop=-1;spacingLeft=3;spacingRight=3;rotatable=0;labelPosition=right;points=[];portConstraint=eastwest;strokeColor=inherit;fontSize=16;fontColor=#000000;" parent="184" vertex="1">
                    <mxGeometry y="52" width="201" height="8" as="geometry"/>
                </mxCell>
                <mxCell id="187" value="redisServiceImp" style="text;strokeColor=none;fillColor=none;align=left;verticalAlign=top;spacingLeft=4;spacingRight=4;overflow=hidden;rotatable=0;points=[[0,0.5],[1,0.5]];portConstraint=eastwest;fontSize=16;fontColor=#000000;" parent="184" vertex="1">
                    <mxGeometry y="60" width="201" height="26" as="geometry"/>
                </mxCell>
                <mxCell id="213" style="edgeStyle=none;html=1;exitX=0.5;exitY=0;exitDx=0;exitDy=0;exitPerimeter=0;entryX=0.491;entryY=1.266;entryDx=0;entryDy=0;entryPerimeter=0;strokeColor=#000000;fontSize=16;fontColor=#000000;" parent="215" source="198" target="187" edge="1">
                    <mxGeometry relative="1" as="geometry"/>
                </mxCell>
                <mxCell id="198" value="教师" style="shape=umlActor;verticalLabelPosition=bottom;verticalAlign=top;html=1;fontSize=16;fontColor=#000000;strokeColor=#000000;" parent="215" vertex="1">
                    <mxGeometry x="83" y="218" width="30" height="60" as="geometry"/>
                </mxCell>
                <mxCell id="224" value="" style="shape=doubleArrow;whiteSpace=wrap;html=1;strokeColor=#000000;fontSize=16;fontColor=#000000;fillColor=#FFFFFF;" parent="1" vertex="1">
                    <mxGeometry x="380" y="203" width="138" height="60" as="geometry"/>
                </mxCell>
                <mxCell id="227" value="" style="shape=doubleArrow;whiteSpace=wrap;html=1;strokeColor=#000000;fontSize=16;fontColor=#000000;fillColor=#FFFFFF;" parent="1" vertex="1">
                    <mxGeometry x="707" y="203" width="138" height="60" as="geometry"/>
                </mxCell>
                <mxCell id="228" value="上传" style="text;html=1;align=center;verticalAlign=middle;resizable=0;points=[];autosize=1;strokeColor=none;fillColor=none;fontSize=16;fontColor=#000000;" parent="1" vertex="1">
                    <mxGeometry x="424" y="184" width="50" height="31" as="geometry"/>
                </mxCell>
                <mxCell id="229" value="拉取" style="text;html=1;align=center;verticalAlign=middle;resizable=0;points=[];autosize=1;strokeColor=none;fillColor=none;fontSize=16;fontColor=#000000;" parent="1" vertex="1">
                    <mxGeometry x="748" y="179" width="50" height="31" as="geometry"/>
                </mxCell>
            </root>
        </mxGraphModel>
    </diagram>
</mxfile>